<?xml version="1.0" encoding="utf-8"?>
<!-- Svg Vector Icons : http://www.onlinewebfonts.com/icon -->
<!DOCTYPE svg PUBLIC "-//W3C//DTD SVG 1.1//EN" "http://www.w3.org/Graphics/SVG/1.1/DTD/svg11.dtd">
<svg version="1.1" xmlns="http://www.w3.org/2000/svg" xmlns:xlink="http://www.w3.org/1999/xlink" x="0px" y="0px" viewBox="0 0 256 256" enable-background="new 0 0 256 256" xml:space="preserve">
<metadata> Svg Vector Icons : http://www.onlinewebfonts.com/icon </metadata>
<g><g><g><path fill="#000000" d="M120.5,10.1c-18.3,1.6-32.6,5.6-47.4,13.3C51.6,34.6,33.3,53.2,22.4,74.9C14,91.8,10,108.7,10,128c0,19.3,4,36.3,12.4,53c9.6,19.2,25.8,36.7,44.4,48c38.7,23.6,88.4,22.6,126.4-2.7c49.1-32.6,66.6-95.9,41.4-149.1c-5.9-12.3-13-22.3-23.2-32.6c-18.9-18.9-41-29.9-67.7-33.7C138.8,10.3,124.5,9.7,120.5,10.1z M145,50.9c0.7,0.7,1.3,1.7,1.3,2.1c0,0.6,1.2,0.7,10.3,0.7c7.8,0,10.9,0.2,13,0.7c7.3,1.9,13.3,7.5,16.4,15.2l1.1,2.8l0.1,37.3c0.1,41.2,0.2,40.6-2.8,46.3c-3.2,6-10,11-16.7,12.2c-3.8,0.7-76.2,0.7-80,0c-6.6-1.2-13.5-6.2-16.7-12.2c-3-5.6-3-5-2.8-46.3l0.1-37.3l1.2-3.1c3-7.5,9-12.9,16.6-14.9c1.8-0.5,5.4-0.7,12.8-0.7c9,0,10.2-0.1,10.2-0.7c0-0.4,0.6-1.3,1.3-2.1l1.3-1.3h15.8h15.8L145,50.9z M100.9,172c1.8,0.7,2.8,2.9,2.1,4.6c-0.2,0.6-6.9,7.5-14.9,15.4c-13.1,13-14.6,14.5-16,14.5c-1,0-1.9-0.4-2.6-1.2c-0.7-0.7-1.2-1.6-1.2-2.6c0-1.3,1.4-2.9,14.5-16c12.1-12.2,15.1-15,16.4-15.3C99.2,171.4,100,171.7,100.9,172z M172.8,186.6c13.2,13.2,14.6,14.8,14.6,16.1c0,2-1.8,3.8-3.8,3.8c-1.3,0-2.9-1.4-16-14.5c-8-7.9-14.7-14.9-14.9-15.5c-1-2.4,1.9-5.5,4.4-4.8C157.7,171.8,164.8,178.5,172.8,186.6z"/><path fill="#000000" d="M88.5,61.6c-4.3,1-8.7,4.4-10.8,8.4c-1.9,3.8-2.1,6.5-1.9,43.3l0.1,34.9l1.1,2.7c1.3,3.2,4.9,7.1,8.2,8.6l2.3,1.2h40.4h40.4l2.3-1.2c4.8-2.3,8.1-7,9-12.3c0.6-3.7,0.6-68.3,0-72.2c-0.9-5.6-4.2-9.9-9.5-12.4l-2.8-1.3l-38.6-0.1C107.3,61.1,89.5,61.3,88.5,61.6z M160.8,67.8c3,1.4,6.1,4.4,7.6,7.5l1.3,2.6l0.1,18.5L170,115l-1.4,1.2l-1.5,1.2h-39.1H88.8l-1.4-1.2l-1.4-1.2V97.3c0-19.6,0.1-20.7,2.9-24.3c2.1-2.7,4.5-4.6,7.3-5.5c2.3-0.8,4.3-0.8,32.5-0.7C158.3,66.8,158.7,66.8,160.8,67.8z M102.4,130c5.4,2.5,7.6,9.1,4.8,14.5c-1.2,2.2-2.5,3.5-5.1,4.7c-6.9,3.1-14.7-1.9-14.8-9.6C87.3,131.6,95.1,126.7,102.4,130z M162,129.7c3.9,1.6,6.6,5.5,6.6,9.9c0,7.7-7.8,12.8-14.8,9.6c-3.6-1.7-5.8-4.4-6.3-8.4C146.4,133.1,154.8,126.7,162,129.7z"/><path fill="#000000" d="M98.6,74.7c-2.3,0.8-4.2,2.9-4.8,5.2c-0.3,1.1-0.5,7.3-0.5,15.7v14h34.6h34.6V95.3c0-17.3-0.3-18.4-4.8-20.5C156,74.1,154,74,128.1,74C105.5,74,100.1,74.1,98.6,74.7z"/></g></g></g>
</svg>