<?xml version="1.0" encoding="utf-8"?>
<!-- Svg Vector Icons : http://www.onlinewebfonts.com/icon -->
<!DOCTYPE svg PUBLIC "-//W3C//DTD SVG 1.1//EN" "http://www.w3.org/Graphics/SVG/1.1/DTD/svg11.dtd">
<svg version="1.1" xmlns="http://www.w3.org/2000/svg" xmlns:xlink="http://www.w3.org/1999/xlink" x="0px" y="0px" viewBox="0 0 256 256" enable-background="new 0 0 256 256" xml:space="preserve">
<metadata> Svg Vector Icons : http://www.onlinewebfonts.com/icon </metadata>
<g><g><g><path fill="#000000" d="M119.7,10.2C89.5,13,65,24.3,44.7,44.7c-9.7,9.7-16.8,19.6-22.7,31.7C5.5,110.2,6,149.7,23.4,182.7c5.7,10.9,12.3,19.8,21.3,28.8c19,19,42.3,30.3,69.5,33.9c6.6,0.8,22.7,0.7,29.4-0.3c21.9-3.2,41.7-11.6,58.6-25.1c5.1-4,13.7-12.7,17.8-17.8c13.4-16.8,21.9-36.7,25.1-58.6c1.3-8.3,1.1-23.8-0.2-32.4c-3.3-21.3-11.7-40.7-24.9-57.2c-4.4-5.6-14-14.9-19.5-19.1c-16.5-12.6-35.1-20.5-55.1-23.5C139.1,10.4,124.5,9.8,119.7,10.2z M151.7,65.3v7.6l17.5,0.1l17.5,0.1v6.3v6.3l-5.7,0.1l-5.7,0.1v56.3v56.3h-48h-48v-56.3V85.9l-5-0.1l-5-0.1v-6.3v-6.3L86.5,73l17-0.1v-7.3c0-4,0.1-7.5,0.3-7.6c0.1-0.2,11-0.3,24.1-0.3h23.8L151.7,65.3L151.7,65.3z"/><path fill="#000000" d="M111.4,69.2v3.7h16.5h16.5v-3.7v-3.7h-16.5h-16.5V69.2z"/><path fill="#000000" d="M91.9,135.7v49.8h35.5h35.5v-49.8V85.9h-35.5H91.9V135.7z M133.2,137.3v43.1l-4.3-0.1l-4.3-0.1l-0.1-42.4c0-23.3,0-42.7,0.1-43c0.1-0.4,1.5-0.6,4.4-0.6h4.2L133.2,137.3L133.2,137.3z M111.9,137.3v40.8h-4.2h-4.2v-40.8V96.6h4.2h4.2V137.3L111.9,137.3z M152.9,137.3v40.6l-4.3,0.1l-4.3,0.1v-40.8V96.5l4.3,0.1l4.3,0.1V137.3z"/></g></g></g>
</svg>