<?xml version="1.0" encoding="utf-8"?>
<!-- Svg Vector Icons : http://www.onlinewebfonts.com/icon -->
<!DOCTYPE svg PUBLIC "-//W3C//DTD SVG 1.1//EN" "http://www.w3.org/Graphics/SVG/1.1/DTD/svg11.dtd">
<svg version="1.1" xmlns="http://www.w3.org/2000/svg" xmlns:xlink="http://www.w3.org/1999/xlink" x="0px" y="0px" viewBox="0 0 256 256" enable-background="new 0 0 256 256" xml:space="preserve">
<metadata> Svg Vector Icons : http://www.onlinewebfonts.com/icon </metadata>
<g><g><g><path fill="#000000" d="M120.5,10.1c-18.3,1.6-32.6,5.6-47.4,13.3C51.6,34.6,33.3,53.2,22.4,74.9C14,91.8,10,108.7,10,128c0,19.3,4,36.3,12.4,53c9.6,19.2,25.8,36.7,44.4,48c38.7,23.6,88.4,22.6,126.4-2.7c49.1-32.6,66.6-95.9,41.4-149.1c-5.9-12.3-13-22.3-23.2-32.6c-18.9-18.9-41-29.9-67.7-33.7C138.8,10.3,124.5,9.7,120.5,10.1z M129.7,44.3c0.7,0.6,1.2,2,1.9,5.1c1.7,8.1,6.8,17.4,20.2,36.2c17.4,24.5,22.9,33.7,26.9,45.3c4.8,13.7,4.5,30.1-0.7,44c-3.2,8.5-7.8,15.7-14,22c-17.8,17.9-43.3,20.6-64,6.8c-9.2-6.2-18-17.7-22-29c-2.9-7.8-4-14.8-4-24.6c0-10.6,1.7-17.6,6.7-28.3c4.2-8.8,8.4-15.4,25.2-40.1c10.9-16,15.3-24.1,17.3-31.9c1.2-4.9,2.1-6.1,4.4-6.1C128.1,43.5,129.2,43.9,129.7,44.3z"/><path fill="#000000" d="M126.1,63.7c-2.2,4.6-7.8,13.5-14.7,23.4c-16.3,23.4-21.9,32.6-25.9,42.6c-3.4,8.6-4,11.4-3.9,20.5c0,9,0.5,12.7,2.6,19.4c5.2,16.3,16.7,28.6,31.3,33.3c10,3.2,21.8,2.3,31.2-2.5c11.9-6,21.4-17.8,25.4-31.7c2.4-8.4,3.1-18.4,1.8-26.2c-2.2-12.3-9.2-25.9-24.6-47.2c-9.6-13.3-17.2-24.7-19.7-29.5c-1.2-2.3-2.3-4.2-2.3-4.2C127.2,61.5,126.7,62.5,126.1,63.7z"/></g></g></g>
</svg>