<?xml version="1.0" encoding="UTF-8" standalone="no"?>
<!-- Created with Inkscape (http://www.inkscape.org/) -->

<svg
   width="256"
   height="256"
   viewBox="0 0 67.733332 67.733333"
   version="1.1"
   id="svg1"
   xml:space="preserve"
   inkscape:version="1.4.2 (ebf0e940d0, 2025-05-08)"
   sodipodi:docname="straz_pozarna.svg"
   xmlns:inkscape="http://www.inkscape.org/namespaces/inkscape"
   xmlns:sodipodi="http://sodipodi.sourceforge.net/DTD/sodipodi-0.dtd"
   xmlns="http://www.w3.org/2000/svg"
   xmlns:svg="http://www.w3.org/2000/svg"><sodipodi:namedview
     id="namedview1"
     pagecolor="#ffffff"
     bordercolor="#000000"
     borderopacity="0.25"
     inkscape:showpageshadow="2"
     inkscape:pageopacity="0.0"
     inkscape:pagecheckerboard="0"
     inkscape:deskcolor="#d1d1d1"
     inkscape:document-units="mm"
     inkscape:zoom="0.99150695"
     inkscape:cx="396.87064"
     inkscape:cy="399.89634"
     inkscape:window-width="1920"
     inkscape:window-height="996"
     inkscape:window-x="0"
     inkscape:window-y="28"
     inkscape:window-maximized="1"
     inkscape:current-layer="g1" /><defs
     id="defs1" /><g
     inkscape:label="Layer 1"
     inkscape:groupmode="layer"
     id="layer1"><g
       id="g1"
       transform="matrix(0.71068017,0,0,0.71068017,-8.5006024,-6.3570199)"><path
         style="fill:#a19fa0"
         d="m 57.163239,103.41037 c -4.009065,-0.3796 -5.510674,-0.91665 -10.012574,-3.580961 -2.113738,-1.250952 -4.713678,-2.536446 -5.777644,-2.856653 -2.585224,-0.778038 -6.434387,-0.735842 -9.084681,0.09959 -2.512621,0.792034 -3.984284,0.55119 -5.422965,-0.887491 l -1.002703,-1.002703 v -1.963524 -1.963524 l 6.685338,-6.729899 c 3.676936,-3.701444 6.515137,-6.835089 6.307113,-6.963655 -0.208024,-0.128566 -3.261164,2.65369 -6.784755,6.182792 -3.780755,3.786666 -6.920991,6.586335 -7.661745,6.830806 L 23.153407,90.989407 21.790045,90.5984 c -2.797093,-0.802196 -3.665309,-3.402133 -2.365933,-7.084959 1.39308,-3.948408 0.505884,-8.142393 -2.953113,-13.96006 l -2.249237,-3.78298 -0.880488,-3.481859 -0.880489,-3.481859 0.238061,-3.327631 c 0.317985,-4.444835 1.460291,-7.905384 3.95736,-11.988595 1.138671,-1.861956 2.391148,-4.49604 2.783282,-5.853521 l 0.71297,-2.468146 -0.244481,-2.618098 C 19.773512,31.110738 19.469439,29.569998 19.23226,29.126825 18.995081,28.683652 18.801026,27.668868 18.801026,26.87175 v -1.449306 l 1.049706,-1.247505 c 1.309317,-1.556035 2.991424,-1.962772 4.826584,-1.167079 0.766179,0.332202 4.184475,3.416933 7.596214,6.85496 3.411739,3.438026 6.37341,6.145738 6.58149,6.017137 0.208081,-0.1286 -2.607888,-3.249464 -6.257707,-6.935253 -3.649819,-3.685789 -6.769439,-7.138269 -6.932488,-7.672178 -0.40908,-1.339547 0.06828,-3.560239 0.933666,-4.343398 0.395763,-0.358162 1.260858,-0.857 1.922432,-1.10853 l 1.202862,-0.457327 1.91181,0.607515 c 3.32022,1.055065 5.163209,1.163045 8.12541,0.476064 l 2.819677,-0.653926 3.791181,-2.210212 c 5.314871,-3.098505 6.925007,-3.6443717 11.475913,-3.8905507 6.385838,-0.3454387 8.966213,0.3980297 16.809258,4.8431507 l 2.89366,1.64001 2.795131,0.47146 2.795131,0.47146 3.305717,-0.856883 3.305717,-0.856883 1.299039,0.452848 c 1.5459,0.538904 2.519969,2.225666 2.519969,4.363746 v 1.54988 l -6.724616,6.769439 c -3.698539,3.723191 -6.604511,6.889544 -6.457716,7.03634 0.422044,0.422043 3.00109,-1.835105 8.78979,-7.692708 l 5.369146,-5.433056 h 1.828302 1.828301 l 1.21422,1.21422 1.214215,1.21422 -0.004,1.381974 c -0.002,0.760085 -0.28286,2.29958 -0.62309,3.421099 -1.288325,4.24685 -0.588573,7.863969 2.54828,13.172406 1.25597,2.125455 2.64861,4.948061 3.09477,6.272458 1.10623,3.283795 1.42966,7.80662 0.81769,11.434747 l -0.50397,2.987893 -1.8276,3.439321 c -1.00518,1.891627 -2.40057,4.590054 -3.10088,5.996505 l -1.273283,2.557183 -0.229903,2.8429 -0.229903,2.8429 0.660147,1.869259 c 0.877952,2.485985 0.838552,4.083751 -0.140285,5.689087 l -0.809417,1.327481 -1.437567,0.269689 c -0.790662,0.14833 -1.874402,0.140036 -2.408311,-0.01843 -0.533909,-0.158466 -3.89308,-3.189862 -7.464826,-6.736435 -3.571745,-3.546573 -6.738431,-6.366865 -7.037079,-6.267315 l -0.542997,0.180999 3.6844,3.794537 c 2.02642,2.086996 3.866774,3.681824 4.089676,3.544063 0.222902,-0.137761 0.28612,-0.05767 0.140483,0.177971 -0.145636,0.235644 0.917183,1.529513 2.361821,2.875263 1.444639,1.345751 2.843396,2.851877 3.108349,3.346947 0.792093,1.480039 0.56642,3.282705 -0.581783,4.647268 -1.337881,1.58998 -3.150642,1.95283 -5.531116,1.10713 -2.117937,-0.752429 -6.189707,-0.83892 -8.567137,-0.18198 -0.91386,0.252521 -3.624286,1.548354 -6.023169,2.879629 -6.189283,3.434776 -9.635176,4.244866 -15.638611,3.676416 z M 57.019076,76.598397 c -1.87437,-2.134789 -2.909819,-4.793323 -2.909819,-7.471011 0,-2.919126 0.712018,-4.250404 4.199761,-7.852405 2.851771,-2.945194 4.108058,-5.09604 4.108058,-7.033263 0,-0.578501 0.178567,-1.051819 0.396816,-1.051819 0.917305,0 4.940624,4.54297 6.069956,6.853951 l 1.217961,2.492346 v 3.530824 3.530823 l -1.074685,2.290951 c -0.591078,1.260023 -1.759365,2.936757 -2.596194,3.726076 -2.46206,2.322278 -1.8718,2.728659 1.593924,1.097383 3.978268,-1.872525 6.856907,-5.769242 7.722999,-10.454361 l 0.443125,-2.397086 -0.41722,-2.323869 c -0.652749,-3.63573 -1.393224,-4.955464 -5.871707,-10.465022 -2.303024,-2.833247 -4.742364,-6.256039 -5.420755,-7.606204 l -1.233438,-2.454845 v -2.117198 c 0,-1.164459 0.173878,-2.723473 0.386395,-3.464477 l 0.386394,-1.347278 h -0.51932 c -0.799858,0 -3.947845,2.852717 -4.994649,4.526169 -1.364456,2.181259 -1.904873,4.865312 -1.906628,9.469525 l -0.0016,4.073814 -0.809416,1.327482 -0.809416,1.327481 -1.432199,0.268682 c -2.030311,0.380888 -2.868324,0.127322 -3.496808,-1.058065 l -0.548643,-1.034798 0.20489,-1.954487 c 0.112689,-1.074968 0.512652,-2.424191 0.888805,-2.998274 0.376154,-0.574083 0.60488,-1.280895 0.508281,-1.570693 l -0.175635,-0.526905 -2.27247,2.279007 c -2.726871,2.734714 -3.917627,5.065231 -4.800795,9.39599 l -0.661569,3.244116 0.503211,3.287188 c 0.276766,1.807953 0.928888,4.243317 1.449161,5.41192 1.280834,2.876931 4.368079,6.192081 6.977186,7.492253 l 2.149297,1.07104 h 2.038426 2.038426 z"
         id="path7" /><path
         style="fill:#f70202"
         d="m 55.770821,103.20127 c -2.348171,-0.43506 -6.044417,-2.00071 -9.259067,-3.921943 -2.063729,-1.233389 -4.546322,-2.320003 -6.275385,-2.746692 l -2.86083,-0.70598 -2.744849,0.535195 c -1.509667,0.294357 -3.509713,0.624632 -4.444546,0.733945 l -1.699697,0.198751 -1.20804,-1.039113 -1.208039,-1.039112 v -1.900497 -1.900498 l 6.75819,-6.767514 6.758189,-6.767514 -0.509228,-0.509229 -0.509228,-0.509228 -6.899712,6.856624 -6.899713,6.856623 h -1.362113 c -1.908864,0 -3.687201,-1.175526 -4.219834,-2.789419 l -0.451487,-1.368022 0.677378,-2.039396 c 1.381336,-4.158814 0.643084,-9.534935 -1.847632,-13.45488 -2.119368,-3.33551 -3.6213,-6.602085 -4.170587,-9.070677 l -0.521802,-2.345067 0.19424,-4.367417 0.19424,-4.367417 1.719545,-3.464596 c 0.94575,-1.905527 2.413152,-4.736281 3.260894,-6.290562 l 1.541348,-2.825967 0.181609,-3.46011 0.18161,-3.46011 -0.691501,-2.081913 c -0.847614,-2.551927 -0.559653,-3.90202 1.136708,-5.329413 l 1.284386,-1.080741 1.646788,0.220881 1.646789,0.220881 6.478354,6.468862 c 3.563095,3.557875 6.709886,6.468863 6.992869,6.468863 1.259499,0 0.105889,-1.456517 -5.914556,-7.467564 -3.535989,-3.530468 -6.589725,-6.892873 -6.786081,-7.472011 -0.802742,-2.367636 1.235847,-5.419928 3.613331,-5.410087 0.597468,0.0025 2.003913,0.282862 3.125432,0.623086 4.399243,1.334557 8.412762,0.490542 14.576512,-3.065339 4.317448,-2.490745 6.558751,-3.245039 10.720876,-3.6080339 l 2.987026,-0.2605097 3.115432,0.6565516 c 1.713488,0.361103 4.143525,1.198013 5.400083,1.859799 1.256557,0.661787 3.803274,1.991819 5.659369,2.955629 l 3.374719,1.75238 2.735041,0.219543 2.73504,0.219543 2.943027,-0.763323 2.943027,-0.763323 1.405844,0.757097 c 1.644192,0.885456 2.483749,2.599418 2.109015,4.305571 l -0.265655,1.20952 -6.605707,6.589984 -6.605707,6.589985 0.461421,0.555979 0.461422,0.555979 6.682453,-6.634493 c 6.676036,-6.628122 7.911593,-7.491223 9.871753,-6.895935 2.618885,0.795338 3.767655,3.44039 2.650785,6.10344 l -0.647698,1.544375 0.0099,3.232622 0.0099,3.232622 0.945668,2.28465 c 0.52012,1.256558 1.73876,3.593132 2.70809,5.192387 0.96934,1.599256 2.15114,4.185028 2.62625,5.746161 l 0.86382,2.838423 -0.19778,4.638614 -0.19777,4.638615 -0.84771,2.170183 c -0.46624,1.1936 -1.57629,3.343249 -2.46677,4.776996 -3.775814,6.079335 -4.404696,9.827353 -2.6179,15.602186 l 0.55069,1.779816 -0.6553,1.37417 c -0.384292,0.805876 -1.257798,1.660077 -2.112188,2.065512 L 96.548795,90.58101 95.37164,90.142377 C 94.724205,89.901129 91.253982,86.774553 87.660033,83.19443 l -6.534451,-6.509313 -0.503332,0.503332 -0.503332,0.503332 6.72624,6.804543 6.72624,6.804544 0.04783,0.987131 c 0.09405,1.94087 -0.135093,2.664729 -1.200076,3.79102 l -1.080145,1.142325 -1.272304,-0.0049 c -0.699768,-0.0027 -2.300397,-0.280882 -3.556955,-0.618156 -4.508278,-1.210073 -7.651881,-0.550494 -13.624735,2.85869 -2.216159,1.264942 -4.870547,2.603652 -5.89864,2.974922 -1.840781,0.66475 -9.094553,1.16236 -11.215556,0.7694 z m 2.907737,-24.920322 c 0,-0.136291 -0.74857,-1.098222 -1.663488,-2.137624 -1.674142,-1.901925 -2.905813,-4.978039 -2.905813,-7.257303 0,-2.113101 1.220053,-4.186378 4.365769,-7.418901 3.184514,-3.272392 3.94205,-4.548906 3.94205,-6.642699 0,-1.450053 0.131339,-1.477966 1.699654,-0.361227 1.883086,1.340876 4.794946,5.749352 5.575613,8.441328 l 0.709127,2.445281 -0.281033,2.12402 c -0.417123,3.15258 -1.573112,5.384284 -4.258265,8.220835 l -2.406618,2.54231 1.479777,-0.230737 c 3.921524,-0.611469 8.028347,-3.841527 9.898539,-7.785301 l 1.083413,-2.284651 v -4.15391 -4.15391 l -1.101414,-2.28465 c -0.605778,-1.256558 -2.89739,-4.434299 -5.092471,-7.061647 -4.339646,-5.19423 -5.920387,-7.90808 -6.290794,-10.800166 l -0.239408,-1.869259 0.609764,-1.973108 c 0.339511,-1.098608 0.434535,-1.973107 0.214399,-1.973107 -1.898195,0 -5.788079,3.996908 -6.70227,6.886671 -0.358971,1.134713 -0.727966,4.179389 -0.829348,6.843189 -0.100455,2.639424 -0.401412,5.207721 -0.668792,5.707327 -0.668564,1.249222 -2.809738,2.289382 -4.064455,1.974468 l -1.021111,-0.256283 -0.569257,-1.362425 -0.569258,-1.362425 0.34351,-1.523079 c 0.188931,-0.837694 0.7454,-2.204231 1.236597,-3.036749 0.491198,-0.832518 0.80186,-1.604895 0.690361,-1.716395 -0.111499,-0.111499 -0.820067,0.179355 -1.574596,0.646342 -6.758258,4.182769 -9.055876,15.517463 -4.877111,24.059945 l 1.267367,2.590828 2.231463,1.967388 c 1.227304,1.082063 3.13277,2.285008 4.234369,2.673212 1.943329,0.684829 5.53373,1.023781 5.53373,0.522412 z"
         id="path6" /><path
         style="fill:#d10f14"
         d="m 55.770821,103.20127 c -2.348171,-0.43506 -6.044417,-2.00071 -9.259067,-3.921943 -2.063729,-1.233389 -4.546322,-2.320003 -6.275385,-2.746692 l -2.86083,-0.70598 -2.744849,0.535195 c -1.509667,0.294357 -3.509713,0.624632 -4.444546,0.733945 l -1.699697,0.198751 -1.20804,-1.039113 -1.208039,-1.039112 v -1.900497 -1.900498 l 6.75819,-6.767514 6.758189,-6.767514 -0.509228,-0.509229 -0.509228,-0.509228 -6.899712,6.856624 -6.899713,6.856623 h -1.362113 c -1.908864,0 -3.687201,-1.175526 -4.219834,-2.789419 l -0.451487,-1.368022 0.677378,-2.039396 c 1.381336,-4.158814 0.643084,-9.534935 -1.847632,-13.45488 -2.119368,-3.33551 -3.6213,-6.602085 -4.170587,-9.070677 l -0.521802,-2.345067 0.19424,-4.367417 0.19424,-4.367417 1.719545,-3.464596 c 0.94575,-1.905527 2.413152,-4.736281 3.260894,-6.290562 l 1.541348,-2.825967 0.181609,-3.46011 0.18161,-3.46011 -0.691501,-2.081913 c -0.847614,-2.551927 -0.559653,-3.90202 1.136708,-5.329413 l 1.284386,-1.080741 1.646788,0.220881 1.646789,0.220881 6.478354,6.468862 c 3.563095,3.557875 6.709886,6.468863 6.992869,6.468863 1.259499,0 0.105889,-1.456517 -5.914556,-7.467564 -3.535989,-3.530468 -6.589725,-6.892873 -6.786081,-7.472011 -0.802742,-2.367636 1.235847,-5.419928 3.613331,-5.410087 0.597468,0.0025 2.003913,0.282862 3.125432,0.623086 4.399243,1.334557 8.412762,0.490542 14.576512,-3.065339 4.317448,-2.490745 6.558751,-3.245039 10.720876,-3.6080339 l 2.987026,-0.2605097 3.115432,0.6565516 c 1.713488,0.361103 4.143525,1.198013 5.400083,1.859799 1.256557,0.661787 3.803274,1.991819 5.659369,2.955629 l 3.374719,1.75238 2.735041,0.219543 2.73504,0.219543 2.943027,-0.763323 2.943027,-0.763323 1.405844,0.757097 c 1.644192,0.885456 2.483749,2.599418 2.109015,4.305571 l -0.265655,1.20952 -6.605707,6.589984 -6.605707,6.589985 0.461421,0.555979 0.461422,0.555979 6.682453,-6.634493 c 6.676036,-6.628122 7.911593,-7.491223 9.871753,-6.895935 2.618885,0.795338 3.767655,3.44039 2.650785,6.10344 l -0.647698,1.544375 0.0099,3.232622 0.0099,3.232622 0.945668,2.28465 c 0.52012,1.256558 1.73876,3.593132 2.70809,5.192387 0.96934,1.599256 2.15114,4.185028 2.62625,5.746161 l 0.86382,2.838423 -0.19778,4.638614 -0.19777,4.638615 -0.84771,2.170183 c -0.46624,1.1936 -1.57629,3.343249 -2.46677,4.776996 -3.775814,6.079335 -4.404696,9.827353 -2.6179,15.602186 l 0.55069,1.779816 -0.6553,1.37417 c -0.384292,0.805876 -1.257798,1.660077 -2.112188,2.065512 L 96.548795,90.58101 95.37164,90.142377 C 94.724205,89.901129 91.253982,86.774553 87.660033,83.19443 l -6.534451,-6.509313 -0.503332,0.503332 -0.503332,0.503332 6.72624,6.804543 6.72624,6.804544 0.04783,0.987131 c 0.09405,1.94087 -0.135093,2.664729 -1.200076,3.79102 l -1.080145,1.142325 -1.272304,-0.0049 c -0.699768,-0.0027 -2.300397,-0.280882 -3.556955,-0.618156 -4.508278,-1.210073 -7.651881,-0.550494 -13.624735,2.85869 -2.216159,1.264942 -4.870547,2.603652 -5.89864,2.974922 -1.840781,0.66475 -9.094553,1.16236 -11.215556,0.7694 z M 67.63453,97.900575 c 1.813934,-0.860633 3.671913,-1.910853 4.128843,-2.333823 0.45693,-0.42297 2.38144,-1.268583 4.27669,-1.87914 l 3.445908,-1.110102 4.238825,0.166723 c 2.331353,0.0917 4.565945,0.315392 4.965759,0.497099 l 0.726934,0.330378 v -0.56779 c 0,-0.58633 -8.430232,-9.406335 -10.530087,-11.016947 -1.286749,-0.986952 -1.867087,-0.908907 -3.800901,0.511153 -3.396522,2.494172 -9.589232,4.087033 -15.784857,4.06011 l -4.153909,-0.01805 -2.690236,-0.718331 c -1.479629,-0.395082 -3.43073,-1.0761 -4.33578,-1.513372 -0.905049,-0.437272 -1.858775,-0.795041 -2.119392,-0.795041 -0.260616,0 -1.341141,-0.574471 -2.401167,-1.276604 l -1.92732,-1.276604 -5.621654,5.739896 c -5.110991,5.218491 -6.335213,6.874482 -4.737508,6.408371 1.716328,-0.500717 5.872328,-0.818119 8.0482,-0.614658 l 2.492346,0.233054 3.738519,1.860454 c 2.056185,1.023249 4.579685,2.36162 5.607778,2.974158 2.544727,1.516148 5.353845,2.100868 9.579058,1.993888 l 3.55589,-0.09003 z M 29.576028,80.552418 c 2.983885,-2.999353 5.425245,-5.729402 5.425245,-6.066775 0,-0.337373 -0.585682,-1.481223 -1.301516,-2.541888 -0.715834,-1.060665 -1.844668,-3.611274 -2.508519,-5.66802 l -1.207002,-3.739539 -0.247903,-4.569301 -0.247903,-4.569301 0.913895,-3.530823 c 0.821225,-3.172797 2.743558,-8.186161 3.344843,-8.723211 0.244027,-0.217957 1.254105,-2.401458 1.254105,-2.711016 0,-0.366248 -11.318886,-11.412278 -11.69418,-11.412278 -0.232243,0 -0.256268,0.629635 -0.05944,1.557716 0.874802,4.124799 -0.02948,13.263729 -1.400671,14.155634 -0.236083,0.153562 -0.673615,0.746518 -0.972293,1.317681 -0.298678,0.571163 -1.019952,1.786181 -1.602831,2.700041 -0.582879,0.913861 -1.426661,2.689657 -1.87507,3.946215 l -0.81529,2.28465 -0.0062,3.946215 -0.0062,3.946214 1.310348,2.831914 c 0.720692,1.557553 1.783668,3.394423 2.36217,4.081933 0.578502,0.687511 1.051822,1.450704 1.051822,1.695985 0,0.24528 0.50828,1.484853 1.129512,2.754605 l 1.129512,2.308639 0.01281,5.002106 c 0.007,2.751157 -0.147381,5.329225 -0.343173,5.729039 l -0.355985,0.726934 h 0.642366 c 0.353302,0 3.083727,-2.454016 6.067611,-5.453369 z m 66.444705,2.920597 -0.490948,-1.835601 0.430657,-4.358222 0.430657,-4.358221 1.515274,-2.700041 c 0.8334,-1.485023 2.099457,-3.728135 2.813467,-4.984692 0.714,-1.256558 1.53487,-3.49967 1.82415,-4.984692 l 0.52596,-2.700042 -0.33774,-2.700041 c -0.46238,-3.696514 -1.22629,-6.19128 -2.37641,-7.760866 -0.532912,-0.727267 -0.968928,-1.496494 -0.968928,-1.709392 0,-0.212899 -0.349268,-0.83288 -0.776151,-1.377737 -0.426883,-0.544857 -1.275269,-2.377017 -1.885303,-4.071466 l -1.109152,-3.080818 -0.05185,-2.734656 c -0.02852,-1.504061 0.177581,-3.735216 0.458004,-4.958122 0.280422,-1.222906 0.413703,-2.31962 0.296181,-2.437142 -0.22553,-0.22553 -2.684846,1.578143 -2.724214,1.997951 -0.0374,0.398815 -5.109818,5.362698 -5.479953,5.362698 -0.186644,0 -0.670782,0.509643 -1.075862,1.132539 -0.405081,0.622897 -1.269297,1.610646 -1.920481,2.194999 l -1.183971,1.06246 0.849159,1.439672 c 3.313993,5.618572 3.841031,7.097634 4.657487,13.07062 0.843274,6.16918 -0.753124,14.322673 -3.645938,18.621377 -0.749114,1.113179 -1.362026,2.295046 -1.362026,2.62637 0,0.331325 2.531584,3.145732 5.625742,6.254237 l 5.625742,5.651828 0.4137,-0.4137 0.4137,-0.4137 z M 62.417076,81.842283 c 5.09828,-0.751141 7.203604,-1.209545 7.459934,-1.624295 0.141203,-0.228472 1.155159,-0.893101 2.253235,-1.476954 2.539713,-1.350378 6.60377,-4.640443 6.992932,-5.66114 0.163986,-0.430105 0.473345,-0.78201 0.687463,-0.78201 0.655922,0 2.68266,-3.765502 3.912639,-7.269342 l 1.166542,-3.323128 0.246285,-3.815118 0.246284,-3.815119 -0.504105,-2.623442 c -0.515093,-2.680626 -2.798878,-8.23122 -3.386726,-8.23122 -0.179248,0 -0.455871,-0.409486 -0.614718,-0.909969 -0.415777,-1.309999 -6.12098,-6.811782 -8.189304,-7.897312 -5.709171,-2.996379 -10.203517,-3.74299 -17.223295,-2.861176 -4.924382,0.618594 -9.278388,2.853416 -13.91987,7.144782 -2.190085,2.024883 -5.233884,6.849611 -5.736529,9.092976 -0.179163,0.799628 -0.637568,2.295035 -1.018678,3.323128 -0.862051,2.325495 -1.00644,7.485203 -0.278983,9.969384 1.193104,4.07431 1.45365,4.842915 2.22829,6.573399 0.832079,1.858799 4.38815,6.79605 5.112758,7.098556 0.226268,0.09446 0.930734,0.691086 1.565479,1.325831 1.50752,1.50752 4.761374,3.694808 5.496471,3.694808 0.31776,0 0.679943,0.165357 0.804849,0.36746 0.124907,0.202103 1.1173,0.499986 2.205318,0.661962 1.088018,0.161976 2.165141,0.447393 2.393606,0.634261 0.933826,0.763804 4.46229,0.939648 8.100123,0.403678 z M 52.676458,78.41451 c -1.113669,-0.413496 -2.931662,-1.511036 -4.039986,-2.438977 -2.105533,-1.762852 -4.911989,-6.028384 -4.911989,-7.465731 0,-0.459709 -0.21227,-1.232466 -0.471712,-1.717238 -0.284089,-0.530825 -0.444879,-2.711447 -0.404249,-5.482409 0.0923,-6.295084 1.089658,-9.422983 4.049084,-12.698715 0.805508,-0.891601 1.34468,-1.815065 1.198159,-2.052141 -0.146522,-0.237076 0.04969,-0.431047 0.436017,-0.431047 0.38633,0 1.328583,-0.386991 2.093894,-0.859979 2.278981,-1.408488 2.953544,-0.08239 1.452103,2.854637 -0.431917,0.844891 -0.988689,2.17608 -1.237271,2.958197 l -0.451966,1.422032 0.476173,0.573754 c 0.261896,0.315565 0.818668,0.757052 1.237272,0.981082 l 0.761097,0.407327 0.821262,-0.439526 c 1.612017,-0.862725 1.80133,-1.616227 2.295962,-9.138361 0.288663,-4.389849 0.791846,-6.030424 2.384001,-7.772782 0.45911,-0.502421 0.731619,-1.182237 0.605576,-1.5107 l -0.22917,-0.597206 0.709006,0.185409 c 0.428098,0.111951 1.157653,-0.318121 1.841385,-1.085493 l 1.132379,-1.270903 h 1.218454 c 1.663806,0 1.823163,0.453467 1.021096,2.905645 -0.414428,1.267043 -0.601994,2.763387 -0.469867,3.748467 0.264453,1.971642 1.845419,5.373401 2.638774,5.677839 0.313404,0.120265 0.569826,0.487979 0.569826,0.817142 0,0.329163 0.424366,1.010137 0.943036,1.513274 1.841694,1.786542 5.147539,5.926844 6.202995,7.768747 0.589122,1.028092 1.377012,2.897352 1.750865,4.15391 l 0.679734,2.28465 -0.06652,3.239724 -0.06652,3.239724 -0.739921,1.451311 c -0.406956,0.79822 -1.223281,2.08503 -1.814057,2.859577 -0.590776,0.774547 -1.076978,1.560934 -1.080449,1.747526 -0.0087,0.4685 -4.132226,3.454691 -4.770443,3.454691 -0.284746,0 -1.384804,0.383552 -2.444572,0.852338 -3.321007,1.46904 -3.83001,-0.253308 -0.878797,-2.973642 1.028092,-0.947663 1.869259,-1.877841 1.869259,-2.067063 0,-0.189221 0.479779,-1.051033 1.066175,-1.915136 l 1.066175,-1.571097 -0.248139,-1.322695 c -0.138682,-0.739239 -0.05928,-1.439414 0.179998,-1.587298 0.649761,-0.401574 0.511574,-3.099214 -0.19495,-3.805737 -0.342697,-0.342698 -0.623086,-0.99287 -0.623086,-1.444826 0,-1.193007 -0.94505,-2.838411 -2.788694,-4.855328 L 63.82544,55.23696 62.934048,57.017319 c -0.490265,0.979197 -1.665764,2.621525 -2.612219,3.649618 -0.946455,1.028092 -2.31848,2.5235 -3.048944,3.323128 -0.730465,0.799627 -1.579067,2.233052 -1.885783,3.185388 l -0.557666,1.731521 0.730464,2.698553 0.730465,2.698554 1.796418,1.763052 1.796419,1.763051 -0.421212,0.787041 -0.421211,0.78704 -2.169734,-0.118972 C 55.67769,79.219859 53.790126,78.828006 52.676458,78.41451 Z m 6.0021,-0.133562 c 0,-0.136291 -0.74857,-1.098222 -1.663488,-2.137624 -1.674142,-1.901925 -2.905813,-4.978039 -2.905813,-7.257303 0,-2.113101 1.220053,-4.186378 4.365769,-7.418901 3.184514,-3.272392 3.94205,-4.548906 3.94205,-6.642699 0,-1.450053 0.131339,-1.477966 1.699654,-0.361227 1.883086,1.340876 4.794946,5.749352 5.575613,8.441328 l 0.709127,2.445281 -0.281033,2.12402 c -0.417123,3.15258 -1.573112,5.384284 -4.258265,8.220835 l -2.406618,2.54231 1.479777,-0.230737 c 3.921524,-0.611469 8.028347,-3.841527 9.898539,-7.785301 l 1.083413,-2.284651 v -4.15391 -4.15391 l -1.101414,-2.28465 c -0.605778,-1.256558 -2.89739,-4.434299 -5.092471,-7.061647 -4.339646,-5.19423 -5.920387,-7.90808 -6.290794,-10.800166 l -0.239408,-1.869259 0.609764,-1.973108 c 0.339511,-1.098608 0.434535,-1.973107 0.214399,-1.973107 -1.898195,0 -5.788079,3.996908 -6.70227,6.886671 -0.358971,1.134713 -0.727966,4.179389 -0.829348,6.843189 -0.100455,2.639424 -0.401412,5.207721 -0.668792,5.707327 -0.668564,1.249222 -2.809738,2.289382 -4.064455,1.974468 l -1.021111,-0.256283 -0.569257,-1.362425 -0.569258,-1.362425 0.34351,-1.523079 c 0.188931,-0.837694 0.7454,-2.204231 1.236597,-3.036749 0.491198,-0.832518 0.80186,-1.604895 0.690361,-1.716395 -0.111499,-0.111499 -0.820067,0.179355 -1.574596,0.646342 -6.758258,4.182769 -9.055876,15.517463 -4.877111,24.059945 l 1.267367,2.590828 2.231463,1.967388 c 1.227304,1.082063 3.13277,2.285008 4.234369,2.673212 1.943329,0.684829 5.53373,1.023781 5.53373,0.522412 z m -12.634205,-48.516785 3.703299,-1.837593 3.891851,-0.713097 3.891852,-0.713096 4.208272,0.201595 c 4.81926,0.230863 7.409566,0.928248 12.100701,3.257857 1.82772,0.907642 3.599,1.645641 3.936178,1.639998 0.666271,-0.01115 11.225592,-10.650814 11.225592,-11.311003 V 19.885595 L 87.236686,20.2071 c -0.970976,0.176828 -3.571167,0.288448 -5.778202,0.248044 l -4.012791,-0.07346 -2.633465,-1.275132 c -1.448405,-0.701323 -3.75502,-1.943541 -5.12581,-2.760485 -3.178595,-1.894334 -6.751309,-3.033704 -9.512767,-3.033704 -3.004008,0 -8.449785,1.497717 -9.908368,2.725034 -0.662453,0.557417 -1.563969,1.013485 -2.00337,1.013485 -0.439401,0 -0.798911,0.186926 -0.798911,0.415391 0,0.228465 -0.257501,0.415391 -0.572224,0.415391 -0.314723,0 -0.781861,0.252598 -1.038085,0.561328 -0.452472,0.545196 -4.164507,1.646651 -7.112901,2.110578 -0.799628,0.12582 -3.03132,0.04759 -4.959316,-0.173853 -1.927996,-0.22144 -3.608458,-0.299607 -3.73436,-0.173705 -0.125902,0.125903 1.264623,1.687984 3.090056,3.471292 1.825433,1.783309 4.440525,4.457851 5.811315,5.943427 l 2.492346,2.701047 0.45061,-0.360011 c 0.247836,-0.198006 2.117095,-1.186928 4.15391,-2.197604 z"
         id="path5" /><path
         style="fill:#a41114"
         d="m 55.770821,103.20127 c -2.348171,-0.43506 -6.044417,-2.00071 -9.259067,-3.921943 -2.063729,-1.233389 -4.546322,-2.320003 -6.275385,-2.746692 l -2.86083,-0.70598 -2.744849,0.535195 c -1.509667,0.294357 -3.509713,0.624632 -4.444546,0.733945 l -1.699697,0.198751 -1.20804,-1.039113 -1.208039,-1.039112 v -1.900497 -1.900498 l 6.75819,-6.767514 6.758189,-6.767514 -0.509228,-0.509229 -0.509228,-0.509228 -6.899712,6.856624 -6.899713,6.856623 h -1.362113 c -1.908864,0 -3.687201,-1.175526 -4.219834,-2.789419 l -0.451487,-1.368022 0.677378,-2.039396 c 1.381336,-4.158814 0.643084,-9.534935 -1.847632,-13.45488 -2.119368,-3.33551 -3.6213,-6.602085 -4.170587,-9.070677 l -0.521802,-2.345067 0.19424,-4.367417 0.19424,-4.367417 1.719545,-3.464596 c 0.94575,-1.905527 2.413152,-4.736281 3.260894,-6.290562 l 1.541348,-2.825967 0.181609,-3.46011 0.18161,-3.46011 -0.691501,-2.081913 c -0.847614,-2.551927 -0.559653,-3.90202 1.136708,-5.329413 l 1.284386,-1.080741 1.646788,0.220881 1.646789,0.220881 6.478354,6.468862 c 3.563095,3.557875 6.709886,6.468863 6.992869,6.468863 1.259499,0 0.105889,-1.456517 -5.914556,-7.467564 -3.535989,-3.530468 -6.589725,-6.892873 -6.786081,-7.472011 -0.802742,-2.367636 1.235847,-5.419928 3.613331,-5.410087 0.597468,0.0025 2.003913,0.282862 3.125432,0.623086 4.399243,1.334557 8.412762,0.490542 14.576512,-3.065339 4.317448,-2.490745 6.558751,-3.245039 10.720876,-3.6080339 l 2.987026,-0.2605097 3.115432,0.6565516 c 1.713488,0.361103 4.143525,1.198013 5.400083,1.859799 1.256557,0.661787 3.803274,1.991819 5.659369,2.955629 l 3.374719,1.75238 2.735041,0.219543 2.73504,0.219543 2.943027,-0.763323 2.943027,-0.763323 1.405844,0.757097 c 1.644192,0.885456 2.483749,2.599418 2.109015,4.305571 l -0.265655,1.20952 -6.605707,6.589984 -6.605707,6.589985 0.461421,0.555979 0.461422,0.555979 6.682453,-6.634493 c 6.676036,-6.628122 7.911593,-7.491223 9.871753,-6.895935 2.618885,0.795338 3.767655,3.44039 2.650785,6.10344 l -0.647698,1.544375 0.0099,3.232622 0.0099,3.232622 0.945668,2.28465 c 0.52012,1.256558 1.73876,3.593132 2.70809,5.192387 0.96934,1.599256 2.15114,4.185028 2.62625,5.746161 l 0.86382,2.838423 -0.19778,4.638614 -0.19777,4.638615 -0.84771,2.170183 c -0.46624,1.1936 -1.57629,3.343249 -2.46677,4.776996 -3.775814,6.079335 -4.404696,9.827353 -2.6179,15.602186 l 0.55069,1.779816 -0.6553,1.37417 c -0.384292,0.805876 -1.257798,1.660077 -2.112188,2.065512 L 96.548795,90.58101 95.37164,90.142377 C 94.724205,89.901129 91.253982,86.774553 87.660033,83.19443 l -6.534451,-6.509313 -0.503332,0.503332 -0.503332,0.503332 6.72624,6.804543 6.72624,6.804544 0.04783,0.987131 c 0.09405,1.94087 -0.135093,2.664729 -1.200076,3.79102 l -1.080145,1.142325 -1.272304,-0.0049 c -0.699768,-0.0027 -2.300397,-0.280882 -3.556955,-0.618156 -4.508278,-1.210073 -7.651881,-0.550494 -13.624735,2.85869 -2.216159,1.264942 -4.870547,2.603652 -5.89864,2.974922 -1.840781,0.66475 -9.094553,1.16236 -11.215556,0.7694 z m 12.409144,-4.856357 c 1.581156,-0.828289 3.581174,-1.985319 4.444483,-2.571176 0.86331,-0.585858 2.857037,-1.456227 4.430505,-1.934153 l 2.860852,-0.868957 3.816212,0.239146 c 2.098917,0.131531 4.423722,0.361455 5.166233,0.510942 l 1.350021,0.271794 v -0.719325 c 0,-0.395629 -2.743852,-3.500364 -6.097448,-6.899411 l -6.097448,-6.180086 -1.691133,1.055971 c -2.985768,1.864362 -6.018874,3.157037 -9.295302,3.961554 l -3.195995,0.784766 -4.361605,-0.0022 -4.361605,-0.0022 -2.907737,-0.777003 C 49.026063,84.35575 46.010698,83.08059 43.58999,81.556597 42.716391,81.006609 41.781762,80.614834 41.513035,80.685986 40.567061,80.936454 29.601191,92.49058 29.601191,93.236832 v 0.755705 l 1.35002,-0.285791 c 0.742512,-0.157185 3.070836,-0.38309 5.174054,-0.50201 l 3.824034,-0.216219 2.199135,0.708071 c 1.209525,0.38944 3.227228,1.283201 4.483786,1.986136 7.535368,4.215387 8.348058,4.456916 14.424997,4.286982 l 4.247918,-0.118784 z m -38.423626,-17.271182 6.167929,-6.17823 -1.911614,-3.565147 c -1.051387,-1.960831 -2.327162,-5.022063 -2.835055,-6.802739 l -0.923443,-3.237592 -0.01032,-4.569301 -0.01032,-4.569301 0.772453,-2.86558 c 0.955221,-3.543597 2.492063,-7.085083 3.854167,-8.88151 0.568122,-0.749274 0.968604,-1.555349 0.889961,-1.791277 -0.283786,-0.851359 -12.135324,-12.42357 -12.723446,-12.42357 h -0.602833 l 0.354534,2.180803 c 0.501832,3.086861 0.422243,8.941636 -0.148255,10.906041 -0.265725,0.914976 -1.53419,3.438476 -2.818811,5.607779 l -2.335675,3.944186 -0.791164,3.078032 c -1.31559,5.118315 -0.934282,8.695182 1.406249,13.191362 0.733376,1.40882 2.165409,4.195697 3.182297,6.19306 l 1.848887,3.631569 -0.01749,4.607106 c -0.0096,2.533908 -0.161098,5.308078 -0.336617,6.164822 l -0.319125,1.557716 h 0.569879 c 0.313433,0 3.345447,-2.780203 6.737808,-6.178229 z m 67.316493,4.828209 c -0.09016,-0.514047 -0.362002,-2.149649 -0.60409,-3.634672 l -0.44016,-2.700041 0.418669,-3.179047 c 0.404163,-3.068908 1.320049,-5.435335 3.105089,-8.022799 2.71906,-3.941348 4.32277,-9.694207 3.80607,-13.653207 -0.42739,-3.27478 -1.49001,-6.573957 -2.57669,-8.000045 -0.5387,-0.70696 -0.979457,-1.421378 -0.979457,-1.587595 0,-0.166217 -0.514047,-1.176213 -1.142326,-2.244434 -0.628278,-1.068222 -1.382609,-2.596915 -1.67629,-3.397097 -0.820397,-2.235308 -1.071126,-6.975378 -0.516402,-9.762695 0.693427,-3.484265 0.697869,-3.626908 0.119306,-3.831086 -0.620655,-0.219031 -12.984536,11.853826 -12.984536,12.678904 0,0.31786 0.420584,1.16756 0.93463,1.888223 1.323151,1.854982 2.628065,4.790374 3.679626,8.277282 l 0.905445,3.002399 -0.0035,4.569301 -0.0035,4.569301 -0.679398,2.829562 c -0.679445,2.829758 -2.267738,6.638358 -3.58381,8.59369 -0.384431,0.571163 -0.813598,1.356787 -0.953704,1.74583 l -0.254739,0.707353 6.039921,6.042751 c 3.357811,3.359384 6.376034,6.042751 6.796822,6.042751 h 0.7569 z M 66.765391,81.61573 c 3.923671,-1.004666 8.067285,-3.48489 11.415048,-6.832654 3.044527,-3.044526 4.781726,-5.810834 6.256129,-9.962229 l 0.958943,-2.700042 0.191387,-4.083533 c 0.24629,-5.254979 -0.368914,-8.267003 -2.648203,-12.965534 l -1.822331,-3.756555 -2.599541,-2.642452 c -6.15667,-6.258302 -13.566627,-8.899387 -22.056436,-7.861438 -6.074273,0.74263 -10.857336,3.16798 -15.629285,7.925149 l -2.557463,2.549543 -1.829883,3.771154 -1.829883,3.771154 -0.646119,3.766624 -0.646118,3.766624 0.39498,2.789065 c 1.716764,12.122544 10.008175,20.86889 22.054205,23.264278 1.955458,0.388849 8.098817,-0.05769 10.99457,-0.799154 z M 43.678542,31.662768 c 3.281312,-2.009652 6.525396,-3.307443 10.101954,-4.041272 l 3.444193,-0.706671 4.361606,0.237319 4.361605,0.237318 2.907736,1.019957 c 3.719484,1.304697 5.507136,2.10456 7.061647,3.159646 0.685395,0.465196 1.46044,0.847042 1.722323,0.848547 0.790264,0.0045 12.193274,-11.715787 12.193274,-12.532585 0,-0.848714 -0.885176,-0.979619 -2.127676,-0.314654 -1.10846,0.59323 -7.075639,0.794119 -9.227413,0.310648 C 76.618445,19.463253 72.89729,17.69463 69.894114,15.801294 68.866021,15.153139 66.733559,14.208757 65.15531,13.702668 l -2.869544,-0.920161 -3.569016,0.24237 c -3.541272,0.240487 -7.149144,1.175221 -8.346011,2.162299 -1.699532,1.401635 -7.198016,3.94704 -9.93414,4.598796 L 37.35641,20.519685 34.41343,20.058582 C 32.794791,19.804975 31.052138,19.470601 30.540868,19.31553 l -0.929582,-0.281948 -0.265609,0.692166 -0.265609,0.692167 5.764491,5.805609 c 3.170471,3.193085 5.826801,5.987095 5.902956,6.208912 0.223976,0.652378 0.898237,0.475322 2.931027,-0.769668 z"
         id="path4" /><path
         style="fill:#5d0203"
         d="m 55.770821,103.20127 c -2.348171,-0.43506 -6.044417,-2.00071 -9.259067,-3.921943 -2.063729,-1.233389 -4.546322,-2.320003 -6.275385,-2.746692 l -2.86083,-0.70598 -2.744849,0.535195 c -1.509667,0.294357 -3.509713,0.624632 -4.444546,0.733945 l -1.699697,0.198751 -1.20804,-1.039113 -1.208039,-1.039112 v -1.900497 -1.900498 l 6.75819,-6.767514 6.758189,-6.767514 -0.509228,-0.509229 -0.509228,-0.509228 -6.899712,6.856624 -6.899713,6.856623 h -1.362113 c -1.908864,0 -3.687201,-1.175526 -4.219834,-2.789419 l -0.451487,-1.368022 0.677378,-2.039396 c 1.381336,-4.158814 0.643084,-9.534935 -1.847632,-13.45488 -2.119368,-3.33551 -3.6213,-6.602085 -4.170587,-9.070677 l -0.521802,-2.345067 0.19424,-4.367417 0.19424,-4.367417 1.735763,-3.464596 c 0.95467,-1.905527 2.42221,-4.738911 3.2612,-6.296407 l 1.525437,-2.831812 0.181303,-3.454265 0.181303,-3.454265 -0.691501,-2.081913 c -0.847614,-2.551927 -0.559653,-3.90202 1.136708,-5.329413 l 1.284386,-1.080741 1.646788,0.220881 1.646789,0.220881 6.478354,6.468862 c 3.563095,3.557875 6.709886,6.468863 6.992869,6.468863 1.259499,0 0.105889,-1.456517 -5.914556,-7.467564 -3.535989,-3.530468 -6.589725,-6.892873 -6.786081,-7.472011 -0.802742,-2.367636 1.235847,-5.419928 3.613331,-5.410087 0.597468,0.0025 2.003913,0.282862 3.125432,0.623086 4.400633,1.334979 8.416147,0.489961 14.576512,-3.067457 2.056186,-1.187382 4.766612,-2.468776 6.023169,-2.847541 l 2.284651,-0.6886643 3.946214,-0.00597 3.946214,-0.00597 2.907737,0.8997873 c 1.599255,0.494883 3.842366,1.497155 4.984691,2.227269 1.142325,0.730115 3.255317,1.881774 4.695538,2.559241 l 2.618583,1.23176 2.660395,0.213551 2.660394,0.213551 2.943027,-0.763323 2.943027,-0.763323 1.405844,0.757097 c 1.644192,0.885456 2.483749,2.599418 2.109015,4.305571 l -0.265655,1.20952 -6.605707,6.589984 -6.605707,6.589985 0.466504,0.562103 0.466504,0.562104 6.469675,-6.420373 c 3.558321,-3.531205 6.909941,-6.644452 7.448044,-6.918327 2.065122,-1.051073 5.057228,0.483797 5.655697,2.90122 0.1414,0.571163 -0.0317,1.856415 -0.3846,2.856115 -0.368768,1.044567 -0.637495,3.164636 -0.631829,4.984692 l 0.0099,3.167055 0.945669,2.28465 c 0.52012,1.256558 1.73876,3.593132 2.70809,5.192387 0.96934,1.599256 2.15114,4.185028 2.62625,5.746161 l 0.86382,2.838423 -0.19778,4.638614 -0.19777,4.638615 -0.84771,2.170183 c -0.46624,1.1936 -1.57629,3.343249 -2.46677,4.776996 -3.775815,6.079335 -4.404697,9.827353 -2.6179,15.602186 l 0.55069,1.779816 -0.6553,1.37417 c -0.384293,0.805876 -1.257799,1.660077 -2.112189,2.065512 L 96.548795,90.58101 95.37164,90.142377 C 94.724205,89.901129 91.253982,86.774553 87.660033,83.19443 l -6.534451,-6.509313 -0.503332,0.503332 -0.503332,0.503332 6.72624,6.804543 6.72624,6.804544 0.04783,0.987131 c 0.09405,1.94087 -0.135093,2.664729 -1.200076,3.79102 l -1.080145,1.142325 -1.272304,-0.0049 c -0.699768,-0.0027 -2.300397,-0.280882 -3.556955,-0.618156 -4.508278,-1.210073 -7.651881,-0.550494 -13.624735,2.85869 -2.216159,1.264942 -4.870547,2.603652 -5.89864,2.974922 -1.840781,0.66475 -9.094553,1.16236 -11.215556,0.7694 z m 8.763718,-3.11968 c 2.049704,-0.439585 6.078803,-2.344991 7.447797,-3.522149 1.299996,-1.117829 5.281132,-2.645403 8.197965,-3.145585 l 3.012611,-0.516605 2.385354,0.554476 c 1.311945,0.304963 2.946132,0.576911 3.631527,0.604331 l 1.246173,0.04985 0.115679,-0.830782 0.115678,-0.830782 -6.346543,-6.31952 -6.346543,-6.31952 -2.28465,1.433911 c -3.36716,2.113325 -8.078718,3.81443 -12.137445,4.382218 l -3.583238,0.501269 -3.828407,-0.490973 c -4.221536,-0.54139 -9.105551,-2.243765 -12.020623,-4.189915 -1.028092,-0.686371 -2.081477,-1.248748 -2.340854,-1.249726 -0.506261,-0.0019 -12.042788,11.406283 -12.622752,12.482333 -0.19134,0.355008 -0.194963,0.892912 -0.0081,1.195342 l 0.339841,0.549874 3.681237,-0.740209 3.681238,-0.740209 3.231631,0.66293 c 3.458584,0.709486 3.642384,0.786698 9.022402,3.790159 1.941952,1.08412 4.465453,2.224557 5.607778,2.534306 2.574641,0.698136 6.947189,0.767266 9.802195,0.154976 z M 29.816328,81.456738 c 3.415457,-3.415837 6.274359,-6.403927 6.353117,-6.6402 0.07876,-0.236274 -0.221352,-0.946359 -0.666911,-1.577968 -1.566412,-2.220495 -3.131529,-5.753192 -4.096141,-9.245585 l -0.97442,-3.527904 0.0029,-3.741439 c 0.0047,-5.999015 1.877621,-12.313539 4.828613,-16.279301 0.541172,-0.727267 0.98395,-1.4898 0.98395,-1.694517 0,-0.204718 -2.819488,-3.218707 -6.265529,-6.697755 l -6.265528,-6.325541 -0.69227,0.13728 -0.69227,0.13728 0.09826,1.651914 c 0.05404,0.908553 0.214536,3.438553 0.356653,5.622221 l 0.258395,3.970307 -1.14303,2.883645 c -0.628667,1.586004 -1.468602,3.350959 -1.866523,3.922122 -2.938078,4.217221 -4.142313,7.959269 -4.142313,12.871858 v 3.582467 l 0.865098,2.561697 c 0.475805,1.408933 1.558264,3.641609 2.405465,4.961501 0.847201,1.319893 1.98439,3.427898 2.527085,4.684455 l 0.986719,2.284651 0.193289,3.475725 c 0.115374,2.074653 -0.01953,4.362864 -0.33467,5.676506 -0.557778,2.325078 -0.380287,3.517194 0.523663,3.517194 0.300558,0 3.340933,-2.794776 6.75639,-6.210613 z m 67.605521,5.275984 c 0.09964,-0.285582 -0.09207,-1.451325 -0.426028,-2.59054 l -0.607192,-2.071301 0.166436,-3.805425 0.166436,-3.805424 1.476781,-2.846485 c 0.81223,-1.565567 2.299838,-4.415956 3.305788,-6.334196 l 1.82902,-3.48771 0.1409,-4.274779 0.14091,-4.274778 -0.67613,-2.325821 c -0.37188,-1.279202 -1.46338,-3.67425 -2.42556,-5.322328 -2.206334,-3.779125 -2.634478,-4.644825 -3.408087,-6.891099 -0.799282,-2.320818 -0.806294,-7.628293 -0.01356,-10.262353 l 0.612429,-2.034947 -0.53868,-0.53868 c -0.296274,-0.296274 -0.805524,-0.433626 -1.131668,-0.305226 -0.326143,0.128399 -3.396876,3.032499 -6.823852,6.453556 l -6.230864,6.220102 0.795558,1.350288 c 1.998815,3.392556 3.237038,5.80236 3.624163,7.05327 1.175395,3.798029 1.575187,6.28365 1.588651,9.877101 l 0.0148,3.949134 -0.97442,3.527904 c -0.95735,3.466098 -2.528225,7.022537 -4.063545,9.199806 -0.42763,0.60643 -0.777509,1.211675 -0.777509,1.344988 0,0.133313 2.813893,3.048541 6.253095,6.478284 5.872235,5.856085 7.521394,7.037183 7.98213,5.716659 z m -32.869857,-4.284178 3.472862,-0.649506 3.471776,-1.692801 3.471776,-1.6928 2.992344,-2.953929 c 4.868043,-4.805548 7.492676,-10.417077 7.987383,-17.077222 l 0.246837,-3.323128 -0.648519,-3.416232 c -0.385782,-2.032195 -1.322243,-4.814737 -2.311477,-6.868178 l -1.662956,-3.451946 -2.64383,-2.696376 C 75.63532,35.268113 72.662459,33.281806 68.647941,31.757715 l -3.115432,-1.182758 -5.815474,0.01244 -5.815473,0.01244 -3.048822,1.150712 c -4.094904,1.545533 -6.357745,3.032527 -9.870803,6.486461 l -2.950242,2.900589 -1.697717,3.429953 c -2.073923,4.190011 -2.994269,8.015435 -2.994269,12.445698 v 3.356415 l 0.877957,2.952522 c 2.608586,8.772531 8.606943,15.248982 16.809352,18.149128 4.69216,1.659019 8.4339,1.929372 13.524974,0.977222 z M 42.928398,32.395643 c 1.869969,-1.331535 6.969378,-3.571346 9.793881,-4.301761 2.656242,-0.686902 10.175276,-0.962754 12.394839,-0.45473 4.135338,0.946515 10.540012,3.688145 11.232205,4.808137 0.132042,0.213648 0.645581,0.388451 1.141197,0.388451 h 0.901121 l 6.13601,-6.30066 c 3.374806,-3.465363 6.133148,-6.409447 6.12965,-6.542408 -0.0035,-0.132962 -0.172975,-0.504934 -0.376613,-0.826606 l -0.370253,-0.584857 -2.454527,0.688705 C 82.564181,20.642463 76.974553,19.791181 72.594155,17.006517 67.172383,13.559842 62.351359,12.185566 57.47667,12.697144 54.009204,13.06104 52.289362,13.69697 47.861435,16.252478 41.940753,19.669506 37.1811,20.68838 32.716623,19.494449 31.802763,19.250056 30.592878,19.020858 30.02799,18.98512 l -1.02707,-0.06498 -0.156768,0.784333 -0.156768,0.784333 6.371199,6.381162 c 3.504158,3.509638 6.438067,6.381161 6.519795,6.381161 0.08173,0 0.689238,-0.38497 1.35002,-0.855488 z"
         id="path3" /><path
         style="fill:#2d0000"
         d="m 55.164036,103.03743 c -1.948229,-0.35187 -3.50816,-1.06081 -10.401075,-4.72693 l -2.907737,-1.546533 -2.821686,-0.481818 -2.821685,-0.481817 -2.786093,0.713994 c -4.413718,1.131108 -5.349924,0.931015 -6.918319,-1.478637 l -0.746676,-1.147177 0.267046,-1.345169 0.267045,-1.345168 6.627032,-6.646256 6.627031,-6.646256 -0.393668,-0.623087 -0.393668,-0.623086 -6.777549,6.762053 -6.77755,6.762053 -1.53312,0.248791 -1.533121,0.248792 -1.037878,-0.680044 C 20.531532,89.627111 19.76999,88.751597 19.410049,88.055548 l -0.654437,-1.265544 0.609002,-2.15752 c 1.001909,-3.549472 1.127919,-5.347501 0.560973,-8.004424 l -0.538536,-2.523776 -2.353064,-4.12248 C 13.865079,64.429994 13.343083,62.836929 13.09623,57.964263 l -0.210574,-4.156541 0.689032,-2.689556 c 0.378967,-1.479255 1.782951,-4.655812 3.119964,-7.059015 1.337013,-2.403203 2.672726,-5.117163 2.968252,-6.031023 0.737142,-2.279476 0.63314,-6.625371 -0.220128,-9.198449 l -0.708593,-2.136801 0.654136,-1.264958 c 1.250778,-2.41874 3.324395,-3.152262 5.560352,-1.966923 0.616933,0.327053 3.829705,3.317868 7.139492,6.646256 5.601878,5.633359 7.325482,6.970787 6.99363,5.426695 -0.07387,-0.343706 -3.078389,-3.586965 -6.676713,-7.207241 l -6.542408,-6.582322 v -1.755618 -1.755618 l 1.21422,-1.21422 c 1.40066,-1.40066 2.505107,-1.509107 5.475247,-0.537624 l 2.068572,0.676596 3.104918,-0.199262 3.104918,-0.199261 2.796989,-1.462773 c 1.538344,-0.804525 4.212996,-2.208064 5.943672,-3.118974 l 3.146684,-1.656201 3.414866,-0.499319 3.414866,-0.4993195 3.188493,0.4833225 c 3.726676,0.564901 6.376012,1.537577 9.366099,3.438665 1.184427,0.753054 3.068546,1.808848 4.186933,2.346209 l 2.03343,0.977018 2.984237,0.191517 2.984237,0.191517 2.315606,-0.673166 c 3.267848,-0.949989 3.954693,-0.858553 5.55241,0.739165 1.472431,1.47243 1.729769,2.585364 0.952398,4.118909 -0.252962,0.499027 -3.361083,3.830677 -6.906934,7.403667 -5.695517,5.739108 -6.951162,7.419253 -5.544727,7.419253 0.182538,0 3.099616,-2.78937 6.482395,-6.1986 3.66046,-3.689081 6.801567,-6.492186 7.758647,-6.923769 l 1.608139,-0.725169 1.420171,0.677232 c 0.781094,0.372478 1.711465,1.240533 2.067491,1.929011 l 0.647321,1.25178 -0.851762,3.285959 -0.851761,3.285959 0.438375,2.744119 c 0.518331,3.244625 0.832028,4.007661 3.405838,8.284413 1.07552,1.787132 2.29314,4.217169 2.70583,5.400083 l 0.75033,2.150753 -0.0107,5.400083 -0.0107,5.400083 -1.74884,3.530824 c -0.96186,1.941952 -2.41139,4.745842 -3.22118,6.230864 -0.8692,1.593986 -1.637306,3.740401 -1.875058,5.239709 l -0.402727,2.539667 0.385504,2.029634 c 0.212027,1.116299 0.591475,2.570605 0.843221,3.231793 l 0.45771,1.202159 -0.44884,1.360011 c -0.564027,1.709005 -2.007216,2.674231 -3.998469,2.674231 h -1.543866 l -6.776385,-6.731517 -6.776384,-6.731517 -0.494115,0.494114 -0.494114,0.494115 2.952437,3.018122 c 1.623841,1.659968 4.649099,4.75024 6.722796,6.867272 l 3.770358,3.849149 v 1.686735 1.686734 l -1.214219,1.21422 -1.21422,1.21422 h -1.110347 c -0.61069,0 -2.156318,-0.304072 -3.434729,-0.675716 l -2.324382,-0.675717 -2.608273,0.243565 c -2.955944,0.27603 -5.837031,1.39426 -9.53602,3.701195 -1.398047,0.871909 -3.640141,1.971299 -4.982432,2.443079 l -2.44053,0.85777 -3.740779,0.14705 c -2.057427,0.0809 -4.668072,-0.0204 -5.801431,-0.22514 z m 8.836853,-2.54607 c 2.386587,-0.41561 7.023911,-2.464685 8.800961,-3.888852 1.062084,-0.851177 4.272042,-2.228911 6.230865,-2.674325 2.723413,-0.619274 5.49231,-0.538692 8.298529,0.241506 l 2.470513,0.686864 0.658693,-0.546667 c 0.362282,-0.300667 0.602942,-0.885571 0.5348,-1.299786 -0.157873,-0.959676 -12.324778,-13.235178 -13.118091,-13.235178 -0.326271,0 -1.368032,0.521242 -2.315026,1.158315 -4.015603,2.701425 -10.522691,4.636347 -15.637402,4.649875 -5.434913,0.01438 -11.864554,-1.884166 -16.078591,-4.747678 -0.858376,-0.583282 -1.815861,-1.060512 -2.127745,-1.060512 -0.311885,0 -3.352771,2.828526 -6.757525,6.285613 l -6.190461,6.285613 v 0.939287 c 0,1.32743 0.893486,1.517147 3.855681,0.818689 1.420583,-0.33496 3.272252,-0.611782 4.114819,-0.615159 2.652271,-0.01063 6.796066,1.181532 9.324142,2.682539 7.457306,4.427666 11.594609,5.424136 17.935838,4.319856 z M 23.862022,87.626514 c 1.433008,-0.766922 12.800815,-12.239301 12.800815,-12.918568 0,-0.350053 -0.348612,-1.082251 -0.774694,-1.627108 -1.154243,-1.476003 -2.923595,-5.13028 -3.875135,-8.003391 l -0.84163,-2.541251 -0.218781,-4.309996 -0.21878,-4.309995 0.529311,-2.959347 c 0.555405,-3.105246 3.515839,-10.030668 4.704979,-11.006486 0.382101,-0.313555 0.69473,-0.814141 0.69473,-1.112413 0,-0.76216 -12.642452,-13.479257 -13.400138,-13.479257 -0.341786,0 -0.861342,0.289077 -1.154569,0.642394 l -0.533139,0.642394 0.482276,2.089338 c 0.982398,4.255977 0.440397,10.14964 -1.198634,13.033818 -0.389498,0.685396 -1.452247,2.554655 -2.361665,4.15391 -0.909417,1.599256 -1.905128,3.655441 -2.212692,4.569301 l -0.559207,1.661564 0.0075,4.776997 0.0075,4.776996 1.160299,2.700042 c 0.638165,1.485022 1.706488,3.512406 2.374052,4.505297 0.667563,0.99289 1.687899,2.955613 2.267412,4.361605 l 1.05366,2.55635 0.0256,3.769483 c 0.01408,2.073216 -0.185454,4.163844 -0.44341,4.64584 -0.897154,1.676348 -0.563304,3.489888 0.700621,3.805917 0.07214,0.01804 0.514768,-0.172508 0.983626,-0.423434 z m 73.990456,-0.815989 c 0.123235,-0.471254 -0.03129,-1.467974 -0.343388,-2.214932 -1.212658,-2.902299 -1.096833,-8.957346 0.218301,-11.412266 0.199693,-0.372761 1.38785,-2.547006 2.640349,-4.831657 2.82639,-5.155543 3.58843,-7.720444 3.58843,-12.077977 v -3.411675 l -0.82998,-2.639949 c -0.45649,-1.451972 -1.39912,-3.474417 -2.09472,-4.494322 -2.170857,-3.182935 -3.684927,-6.751608 -4.187042,-9.868877 l -0.483231,-3.000039 0.683141,-2.815435 c 0.851763,-3.510371 0.857599,-4.528031 0.02779,-4.846457 -1.021693,-0.392061 -1.645286,0.119373 -8.277728,6.788904 l -6.230864,6.265708 0.802052,1.342157 c 3.614495,6.048506 4.951751,9.735186 5.517641,15.211575 0.389636,3.770698 -1.311749,11.433627 -3.330478,15.000256 -0.452594,0.799627 -1.26903,2.28638 -1.814303,3.303896 l -0.991407,1.850027 6.462363,6.353945 6.462363,6.353944 h 0.978322 0.978322 z M 66.363291,82.398004 c 7.29263,-1.808377 14.020816,-7.352529 17.550239,-14.461725 1.096111,-2.20786 2.156154,-6.427879 2.458323,-9.786554 l 0.24515,-2.724907 -0.694061,-3.505958 C 83.891577,41.657692 77.624408,34.617522 67.194072,30.879948 l -2.076954,-0.744249 -5.400083,0.02288 -5.400082,0.02288 -3.192651,1.107568 c -4.178442,1.449551 -7.23542,3.447491 -10.645121,6.957301 l -2.777867,2.859424 -1.627867,3.212948 c -1.730022,3.41457 -2.106467,4.749423 -2.736016,9.701757 -1.379366,10.850752 4.661643,21.65322 14.853628,26.561099 3.531723,1.700677 5.134144,2.13734 9.146676,2.492492 3.965316,0.350972 5.28146,0.252388 9.025556,-0.676048 z M 43.933857,32.229157 c 3.700212,-2.228152 8.704124,-3.969817 12.809115,-4.45835 l 3.672193,-0.437026 3.181758,0.50542 c 5.054874,0.802964 8.080279,1.979816 12.517494,4.869181 l 1.399211,0.911119 0.655696,-0.359697 c 1.283619,-0.704158 12.365708,-12.34905 12.598163,-13.237961 l 0.236631,-0.904879 -0.752073,-0.402498 -0.752073,-0.402497 -2.014349,0.611133 c -1.107892,0.336124 -3.509756,0.610875 -5.337476,0.610558 l -3.323128,-5.75e-4 -3.165179,-1.381988 c -1.740849,-0.760094 -3.743206,-1.793579 -4.449682,-2.296635 -0.706477,-0.503056 -2.625791,-1.467749 -4.265142,-2.143764 l -2.98064,-1.229117 -3.992929,0.0049 c -5.186163,0.0064 -7.601117,0.68928 -12.251328,3.464306 -2.098367,1.252207 -4.957614,2.572766 -6.353882,2.934575 -3.253019,0.842942 -7.344725,0.839722 -9.831882,-0.0077 l -1.953349,-0.665573 -0.612994,0.50874 c -0.337147,0.279807 -0.612994,0.870602 -0.612994,1.312878 v 0.804138 l 6.496265,6.414342 c 3.572946,3.527888 6.541114,6.414342 6.595929,6.414342 0.05481,0 1.173806,-0.646814 2.486645,-1.437365 z"
         id="path2" /><path
         style="fill:#080304"
         d="m 55.503091,102.98022 c -2.89265,-0.47564 -8.723019,-3.232934 -8.549036,-4.043011 0.06278,-0.292294 -0.08083,-0.410948 -0.319119,-0.263675 -0.238292,0.147272 -1.037358,-0.102689 -1.775703,-0.55547 -0.738345,-0.452781 -2.427057,-1.13627 -3.752695,-1.518865 l -2.410249,-0.695626 -2.366747,0.180224 c -1.30171,0.09912 -3.439384,0.43375 -4.750386,0.743617 l -2.383641,0.563395 -1.147183,-0.849025 c -0.63095,-0.466963 -1.393584,-1.351569 -1.694742,-1.96579 l -0.547559,-1.116765 0.446005,-1.351409 0.446005,-1.35141 6.004902,-5.940522 c 3.302697,-3.267287 6.159362,-5.845061 6.348145,-5.728386 0.188783,0.116674 0.381339,-0.248168 0.4279,-0.810761 0.182305,-2.202748 -1.139919,-1.318907 -7.211933,4.82082 -5.802996,5.867708 -7.781247,7.477527 -9.188872,7.477527 -1.25511,0 -3.125397,-1.370675 -3.679356,-2.696487 l -0.582925,-1.395135 0.680603,-1.796556 0.680602,-1.796555 0.01503,-3.355671 0.01503,-3.355671 -1.526694,-3.08289 c -0.839681,-1.695589 -2.264784,-4.484834 -3.166896,-6.198321 -2.03211,-3.859829 -2.71742,-7.282492 -2.40957,-12.034197 l 0.234033,-3.612349 1.012386,-2.491497 c 0.556812,-1.370323 1.654382,-3.50436 2.439045,-4.742305 2.06486,-3.257683 3.231584,-6.240358 3.519849,-8.998324 l 0.2527,-2.417712 -0.829559,-2.931388 -0.829559,-2.931387 0.52969,-1.259761 c 0.961073,-2.285722 3.273628,-3.219488 5.294639,-2.137876 0.487789,0.261057 3.771203,3.347891 7.296474,6.859632 l 6.409583,6.384982 0.573768,-0.476185 0.573768,-0.476185 -0.524361,-0.671821 C 38.768059,34.591928 35.681476,31.434184 32.197384,27.94422 L 25.862672,21.598831 V 20.1141 18.629368 l 1.412329,-1.412329 c 1.598588,-1.598588 2.200515,-1.6878 4.985404,-0.738893 l 1.976426,0.673436 3.393805,-0.191064 3.393806,-0.191064 2.076955,-1.03231 c 1.142325,-0.56777 3.002457,-1.626644 4.133627,-2.353052 1.131169,-0.726408 3.093892,-1.722368 4.361605,-2.213244 l 2.304933,-0.892502 4.361605,-0.163172 c 5.471863,-0.2047092 8.28854,0.366906 11.899279,2.414833 1.565905,0.888145 4.062118,2.217975 5.547141,2.955178 l 2.700041,1.340368 3.029683,0.158981 3.029683,0.158981 2.836328,-0.735649 2.836328,-0.735649 1.328328,0.945853 c 0.73058,0.520219 1.507883,1.418122 1.727341,1.995339 l 0.399014,1.049487 -0.433344,1.313045 -0.433344,1.313045 -6.433074,6.384939 c -3.538191,3.511716 -6.433074,6.516089 -6.433074,6.676383 0,0.160294 0.254947,0.503032 0.566549,0.761639 l 0.56655,0.470194 1.821948,-1.97689 c 1.002072,-1.08729 1.922721,-1.943371 2.045888,-1.902402 0.123166,0.04097 0.585955,-0.46415 1.028419,-1.122485 0.442464,-0.658336 1.229308,-1.424335 1.748542,-1.702221 0.519234,-0.277885 0.875473,-0.573836 0.791641,-0.657667 -0.359656,-0.359657 5.256051,-5.614902 6.600158,-6.176506 l 1.477129,-0.617184 1.400672,0.664663 c 0.77037,0.365564 1.672825,1.226595 2.005455,1.913402 l 0.604782,1.24874 -0.774874,2.951439 c -0.426181,1.623291 -0.774875,3.532317 -0.774875,4.242279 0,2.482892 1.295729,6.27005 3.291549,9.620524 1.10677,1.857979 2.44676,4.474942 2.97776,5.815474 l 0.96545,2.437332 0.0159,4.984692 0.0159,4.984692 -0.75107,2.1573 c -0.4131,1.186515 -1.12699,2.635191 -1.58643,3.21928 -0.45945,0.584089 -0.74197,1.061981 -0.62782,1.061981 0.26,0 -2.37698,4.556038 -3.12549,5.400082 -0.303917,0.342698 -0.558088,0.903476 -0.564828,1.246173 -0.0067,0.342698 -0.165709,1.856805 -0.353264,3.364682 l -0.341009,2.741594 0.849766,3.002792 0.849765,3.002791 -0.36163,0.951167 c -0.561725,1.477446 -2.430113,2.721832 -4.086703,2.721832 h -1.474033 l -6.917616,-6.874415 -6.917617,-6.874416 -0.550949,0.663853 -0.550949,0.663852 6.921663,6.965162 6.921662,6.965162 v 1.571088 1.571088 l -1.290102,1.205137 c -1.463658,1.367261 -2.54892,1.480688 -5.526019,0.577553 -4.425823,-1.34262 -8.694565,-0.473549 -14.08283,2.867117 -5.351423,3.317822 -11.157277,4.507892 -17.169356,3.519342 z m 11.067895,-2.75357 c 0.799628,-0.21616 2.575424,-1.015794 3.946214,-1.776964 1.37079,-0.761169 3.24005,-1.759091 4.15391,-2.217604 0.91386,-0.458513 1.759751,-0.974074 1.879757,-1.145692 0.321115,-0.459217 3.628339,-1.129782 6.012671,-1.219117 1.142325,-0.0428 3.261559,0.236389 4.709409,0.620418 l 2.632454,0.698236 0.521198,-0.432556 c 0.286659,-0.237906 0.644193,-0.309561 0.794521,-0.159233 0.150328,0.150328 0.273323,-0.412071 0.273323,-1.249777 0,-0.837705 -0.197957,-1.5231 -0.439906,-1.5231 -0.241948,0 -0.346604,-0.150965 -0.232569,-0.335478 0.114035,-0.184513 -0.28394,-0.698559 -0.884389,-1.142325 -0.600449,-0.443766 -1.570617,-1.348787 -2.155929,-2.011159 -0.585311,-0.662371 -1.324998,-1.410075 -1.643749,-1.661564 -1.172846,-0.925357 -6.689795,-6.69765 -6.689795,-6.999424 0,-0.561307 -2.61827,-0.326581 -3.306705,0.296444 -1.379123,1.248089 -6.429091,3.581869 -9.479573,4.380865 -3.583251,0.938543 -6.721036,1.033902 -11.759588,0.35738 l -3.493024,-0.469005 -2.66224,-1.218044 c -1.464232,-0.669925 -3.470541,-1.77417 -4.458463,-2.453879 l -1.796223,-1.235834 -1.056365,0.141466 c -0.581001,0.07781 -1.023189,0.224817 -0.982641,0.32669 0.04055,0.101873 -1.402458,1.587168 -3.206682,3.300656 -1.804223,1.713488 -3.343868,3.256792 -3.421432,3.429564 -0.07756,0.172772 -0.340869,0.190622 -0.585121,0.03967 -0.244251,-0.150955 -0.326318,-0.0839 -0.182369,0.149014 0.143948,0.232914 -0.935001,1.572634 -2.397666,2.977157 l -2.659389,2.553677 0.352015,1.227406 c 0.574821,2.004284 0.66768,2.033709 3.812491,1.208065 1.643209,-0.431411 3.868503,-0.784383 4.945097,-0.784383 2.174147,0 6.797138,1.292806 8.074035,2.257881 0.453679,0.342889 1.075776,0.629379 1.382438,0.636645 0.756977,0.01794 2.594777,1.499399 2.266851,1.827325 -0.144563,0.144563 0.09543,0.263993 0.533325,0.2654 0.437891,0.0014 1.268564,0.249104 1.845939,0.550436 3.357009,1.752023 10.451067,2.117273 15.35817,0.790743 z M 25.245085,87.676249 c -0.08621,-0.139483 2.540986,-2.947178 5.838203,-6.239322 3.39673,-3.391505 5.99494,-6.318601 5.99494,-6.753792 0,-0.422441 -0.475394,-1.365596 -1.056431,-2.095901 -0.581037,-0.730305 -1.825803,-3.197086 -2.766147,-5.481737 l -1.709717,-4.15391 -0.190848,-4.562072 c -0.111934,-2.675676 0.01963,-5.739831 0.31817,-7.410371 0.571108,-3.195723 3.311453,-9.4715 4.862648,-11.136149 l 1.018384,-1.092869 -1.484202,-1.441439 c -0.816312,-0.792792 -1.484203,-1.628214 -1.484203,-1.856494 0,-0.228281 -0.959089,-1.23749 -2.131309,-2.242688 -3.013837,-2.584415 -5.345728,-5.056775 -5.345728,-5.667745 0,-0.286822 -0.161596,-0.521494 -0.359102,-0.521494 -0.197506,0 -0.991941,-0.557792 -1.765411,-1.239538 -0.773471,-0.681746 -1.718934,-1.242523 -2.10103,-1.246173 l -0.69472,-0.0066 -0.480459,1.455807 -0.48046,1.455807 0.679607,2.988002 0.679606,2.988002 -0.487646,2.891096 c -0.51487,3.052492 -1.356375,5.463351 -2.268285,6.49849 -0.301901,0.342698 -1.077721,1.622606 -1.724044,2.84424 -0.646324,1.221635 -1.398312,2.627164 -1.671085,3.123399 -0.887337,1.614267 -1.449784,6.556297 -1.164561,10.23261 l 0.273936,3.530823 1.866657,3.817269 c 1.026662,2.099498 2.131854,4.037362 2.455983,4.306365 0.324128,0.269003 1.073295,2.009362 1.664814,3.867465 l 1.07549,3.378368 -0.267,2.427237 c -0.146851,1.33498 -0.472649,2.92385 -0.723998,3.530823 -0.460574,1.112225 -0.473042,1.560686 -0.09182,3.302879 l 0.208558,0.95312 1.833975,-0.09493 c 1.008686,-0.05221 1.763443,-0.209056 1.677238,-0.348539 z m 72.238554,0.154356 0.65706,-0.252138 V 85.98586 c 0,-0.875933 -0.171095,-1.698349 -0.38021,-1.827589 -0.618239,-0.382093 -0.997837,-6.142191 -0.509493,-7.731155 1.135024,-3.693122 2.098073,-5.904707 2.980064,-6.843546 0.52921,-0.563312 0.84371,-1.024204 0.69889,-1.024204 -0.14481,0 0.37457,-1.261751 1.15417,-2.80389 0.77961,-1.542139 1.60864,-3.645056 1.8423,-4.673148 0.53853,-2.369503 0.56754,-7.810746 0.0501,-9.388159 -0.21729,-0.662372 -0.58793,-1.960048 -0.82363,-2.883727 -0.23571,-0.923678 -0.8082,-2.086908 -1.2722,-2.584955 -1.31986,-1.416702 -2.890004,-4.636252 -2.640928,-5.415163 l 0.225519,-0.705242 -0.375138,0.51907 -0.375138,0.519069 -0.91022,-3.030455 c -0.936504,-3.117966 -1.211546,-7.11872 -0.518828,-7.546843 0.215264,-0.133041 0.519233,-1.125434 0.675485,-2.205318 0.156253,-1.079884 0.494173,-2.232965 0.750935,-2.562402 l 0.466839,-0.598976 -0.519239,0.311948 c -0.285581,0.171572 -0.519238,0.135792 -0.519238,-0.07951 0,-0.704347 -1.829781,-0.889073 -2.761235,-0.278761 C 94.21362,25.916795 84.517661,35.543966 83.31097,37.135779 l -0.914133,1.205883 2.264153,4.239911 c 1.245284,2.331952 2.264153,4.647249 2.264153,5.145105 0,0.497856 0.174526,1.229777 0.387836,1.62649 2.684167,4.992014 0.740501,16.741665 -3.900862,23.581096 -0.599269,0.883073 -0.904627,1.776134 -0.749585,2.192266 0.23145,0.621214 1.890789,2.332868 5.778704,5.960895 0.651171,0.607644 1.89547,1.869395 2.765108,2.80389 0.869638,0.934494 1.649694,1.699081 1.733458,1.699081 0.08376,0 0.713077,0.560778 1.398472,1.246173 1.250172,1.250172 1.923419,1.46294 3.145365,0.994036 z M 66.353485,82.819462 c 1.365397,-0.343022 3.223035,-0.981445 4.128084,-1.418717 0.90505,-0.437272 1.984286,-0.795041 2.398304,-0.795041 0.414018,0 0.752759,-0.177946 0.752759,-0.395435 0,-0.217489 0.887898,-0.999588 1.973107,-1.737996 1.085209,-0.738409 2.110439,-1.541824 2.27829,-1.785368 l 0.305182,-0.442806 0.01899,0.415391 c 0.01045,0.228465 0.234025,0.04154 0.496844,-0.415391 0.262819,-0.45693 1.537197,-2.232727 2.83195,-3.946215 4.888608,-6.469627 6.382907,-14.349561 4.288329,-22.61379 C 85.009635,46.46575 82.632302,41.487339 81.051251,39.68662 80.32866,38.863634 79.927744,38.052537 80.103209,37.768627 L 80.40725,37.276678 79.952548,37.5577 c -0.250087,0.154562 -1.073404,-0.238722 -1.829593,-0.873965 -6.672278,-5.605097 -14.900036,-8.184417 -22.194981,-6.957904 -2.594086,0.436148 -6.812209,1.850341 -9.595654,3.217095 l -2.58455,1.269091 -3.396033,3.661918 -3.396033,3.661918 -1.466312,3.230829 c -1.957662,4.313454 -2.243805,5.672197 -2.442288,11.597129 l -0.168945,5.043172 1.336309,3.887735 1.336309,3.887734 2.009898,2.75085 c 1.105444,1.512967 2.009899,2.992797 2.009899,3.288512 0,0.295714 0.116718,0.420944 0.259374,0.278288 0.142655,-0.142655 0.876502,0.3761 1.63077,1.15279 0.754269,0.776689 2.120275,1.794212 3.03557,2.261161 0.915296,0.466948 1.781351,1.038595 1.924568,1.270324 0.143217,0.23173 0.561764,0.421327 0.930105,0.421327 0.368341,0 0.964819,0.25392 1.325506,0.564266 1.107358,0.952804 3.380258,1.584779 7.717441,2.145819 4.426731,0.572622 6.020843,0.493181 9.959577,-0.496327 z M 80.535969,31.544277 c 3.167187,-3.28993 2.932378,-3.058718 6.239557,-6.143941 2.992051,-2.791243 4.371005,-4.630368 4.600919,-6.136291 l 0.137753,-0.902269 -0.736812,-0.145071 c -0.405246,-0.07979 -1.858366,0.08868 -3.229157,0.374374 -1.37079,0.285695 -3.89429,0.522189 -5.607778,0.525542 l -3.115432,0.0061 -1.246173,-0.660193 C 76.893451,18.09942 75.890835,17.750091 75.35081,17.68624 c -0.540025,-0.06385 -1.100803,-0.307 -1.246173,-0.540331 -0.346054,-0.555445 -5.93493,-3.460777 -8.521849,-4.430015 l -2.026675,-0.759332 -4.827276,0.221978 c -2.655001,0.122088 -5.481516,0.440259 -6.281144,0.707046 -1.505105,0.502163 -3.790585,1.636094 -4.153909,2.060945 -0.741475,0.867039 -3.994026,2.561871 -5.872165,3.059854 -6.431108,1.70519 -8.276406,1.772665 -10.994228,0.402014 l -1.289232,-0.650184 -1.306962,0.578517 c -1.211662,0.536334 -1.868518,2.037278 -0.89157,2.037278 0.228465,0 0.415391,0.273715 0.415391,0.608256 0,0.51686 4.814892,5.613185 7.316417,7.744065 0.431038,0.367173 1.092717,1.021414 1.470396,1.453868 2.559713,2.930951 5.194827,4.308305 5.938972,3.104254 0.467155,-0.755872 4.135243,-2.546044 7.7837,-3.798751 l 3.719345,-1.277046 3.643096,-0.236026 3.643096,-0.236026 2.246625,0.507134 c 5.461074,1.232735 9.218111,2.746026 11.583719,4.665787 0.794565,0.644813 1.657956,1.172388 1.918645,1.172388 0.260689,0 1.573312,-1.141936 2.91694,-2.537636 z"
         id="path1" /><path
         style="fill:#f9f9f9;stroke-width:1.00857"
         d="m 107.8371,182.11489 c -5.40102,-3.09788 -14.57584,-12.3986 -17.159623,-17.39508 -2.559641,-4.9498 -5.453667,-17.92894 -5.453667,-24.45863 0,-7.27291 3.188966,-19.60034 6.54086,-25.28468 2.712891,-4.60068 13.33912,-15.21139 12.12048,-12.10279 -1.47888,3.77247 -3.53285,12.03039 -3.53285,14.2037 0,3.92792 3.75542,7.48205 7.88958,7.46669 5.99554,-0.0223 7.84125,-0.9329 10.12439,-4.9952 1.81987,-3.23803 2.15734,-5.47986 2.15734,-14.33134 0,-18.936672 4.81234,-29.289125 17.00133,-36.573812 1.09814,-0.656297 1.2145,-0.145302 0.58889,2.586106 -0.42882,1.872208 -0.6855,6.32714 -0.57042,9.89985 0.26897,8.349549 2.13429,11.774288 17.42215,31.987106 14.42646,19.07392 16.31275,23.32845 15.80431,35.64665 -0.42875,10.38754 -3.41756,17.63655 -10.30957,25.00467 -4.12775,4.4129 -13.72925,10.29513 -16.80464,10.29513 -0.66027,0 0.64696,-2.00426 2.90497,-4.45391 2.25801,-2.44965 5.51049,-7.23725 7.22774,-10.6391 2.80864,-5.56387 3.12809,-7.13552 3.18017,-15.64596 0.0538,-8.7927 -0.17323,-9.8944 -3.21509,-15.60151 -3.51037,-6.58613 -14.40119,-19.2163 -16.56995,-19.2163 -1.50321,0 -2.53824,2.18805 -2.54374,5.37746 -0.005,3.13654 -3.31468,8.15766 -11.07965,16.81099 -9.08686,10.12647 -10.55221,13.08235 -10.49972,21.17988 0.0463,7.14279 2.3087,13.4806 7.0145,19.65023 l 2.70527,3.54678 -4.9104,-0.009 c -3.5666,-0.007 -6.31216,-0.81349 -10.03266,-2.94747 z"
         id="path8"
         transform="matrix(0.37229593,0,0,0.37229593,11.961221,8.94498)" /></g></g></svg>
